<svg class="svg-icon" style="width: 1em; height: 1em;vertical-align: middle;fill: currentColor;overflow: hidden;" viewBox="0 0 1024 1024" version="1.1" xmlns="http://www.w3.org/2000/svg"><path d="M725.333333 469.333333H401.493333l140.8-140.373333a42.666667 42.666667 0 1 0-60.586666-60.586667l-213.333334 213.333334a42.666667 42.666667 0 0 0-8.96 14.08 42.666667 42.666667 0 0 0 0 32.426666 42.666667 42.666667 0 0 0 8.96 14.08l213.333334 213.333334a42.666667 42.666667 0 0 0 60.586666 0 42.666667 42.666667 0 0 0 0-60.586667L401.493333 554.666667H725.333333a42.666667 42.666667 0 0 0 0-85.333334z"  /></svg>